PathFileType	4	(X/Y/Z)	markers_results_mono.trc
DataRate	CameraRate	NumFrames	NumMarkers	Units	OrigDataRate	OrigDataStartFrame	OrigNumFrames
12.500000	12.500000	11	22	m	12.500000	1508	3015
Frame#	Time	Nose			Neck			LShoulder			RShoulder			LElbow			RElbow			LWrist			RWrist			LHip			RHip			LKnee			RKnee			LAnkle			RAnkle			LEye			REye			LThumb			LIndex			LPinky			RThumb			RIndex			RPinky
		X1	Y1	Z1	X2	Y2	Z2	X3	Y3	Z3	X4	Y4	Z4	X5	Y5	Z5	X6	Y6	Z6	X7	Y7	Z7	X8	Y8	Z8	X9	Y9	Z9	X10	Y10	Z10	X11	Y11	Z11	X12	Y12	Z12	X13	Y13	Z13	X14	Y14	Z14	X15	Y15	Z15	X16	Y16	Z16	X17	Y17	Z17	X18	Y18	Z18	X19	Y19	Z19	X20	Y20	Z20	X21	Y21	Z21	X22	Y22	Z22

1508	120.560000	0.734442	1.600351	0.483233	0.533557	1.566267	0.210174	0.563431	1.631723	0.440690	0.503682	1.500810	-0.020342	0.071483	1.457683	0.473626	0.143431	1.343168	-0.359960	0.290626	1.210025	0.473783	0.281650	0.947982	-0.412555	-0.037636	0.924815	0.166258	-0.034417	0.976764	-0.199148	-0.791627	0.486660	-0.080771	-0.522837	0.486729	-0.397845	-1.449960	0.030429	-0.326580	-1.013050	-0.104681	-0.800702	0.737436	1.657893	0.503200	0.739297	1.694035	0.512704	0.287000	1.133214	0.504630	0.282062	1.036752	0.483703	0.287276	1.144118	0.463110	0.273564	0.773959	-0.322448	0.269661	0.701374	-0.367239	0.271553	0.747760	-0.432156
1509	120.640000	0.700044	1.651052	0.460315	0.540369	1.591757	0.211243	0.533729	1.602847	0.428427	0.547008	1.580668	-0.005941	0.061744	1.408426	0.399780	0.109469	1.355419	-0.333340	0.308696	1.173584	0.402101	0.250196	0.946857	-0.363047	-0.033780	0.924011	0.152200	-0.030685	0.974117	-0.178691	-0.712375	0.521305	-0.070537	-0.485126	0.515256	-0.359128	-1.308930	0.105179	-0.286944	-0.926079	-0.023544	-0.715642	0.701778	1.683324	0.480053	0.703047	1.711717	0.457515	0.307045	1.139502	0.409261	0.305515	1.109336	0.404912	0.307380	1.150153	0.378922	0.240229	0.733866	-0.263753	0.236979	0.674732	-0.311159	0.239822	0.740892	-0.381368
1510	120.720000	0.669181	1.696922	0.439647	0.552779	1.624524	0.211593	0.525053	1.600156	0.423763	0.580505	1.648893	-0.000577	0.068904	1.395469	0.411641	0.087405	1.379067	-0.328707	0.291568	1.222612	0.411946	0.238416	0.944235	-0.322685	-0.030750	0.924215	0.139091	-0.029330	0.972070	-0.164262	-0.654949	0.547807	-0.059912	-0.455857	0.533809	-0.330842	-1.204214	0.157863	-0.253704	-0.860041	0.031086	-0.649404	0.671653	1.742511	0.470871	0.671778	1.751202	0.423144	0.290769	1.218943	0.316085	0.289094	1.182687	0.336464	0.290156	1.207683	0.307967	0.229262	0.746358	-0.213886	0.225216	0.670483	-0.255572	0.226538	0.705946	-0.324489
1511	120.800000	0.659200	1.710987	0.432860	0.553515	1.629745	0.206995	0.532219	1.609039	0.425445	0.574811	1.650451	-0.011455	0.089281	1.409078	0.478894	0.087575	1.378675	-0.337290	0.269573	1.315054	0.484195	0.238501	0.945052	-0.314111	-0.028348	0.924644	0.136138	-0.030496	0.971947	-0.161831	-0.646569	0.550098	-0.050986	-0.450779	0.531102	-0.325374	-1.187555	0.160299	-0.239103	-0.850489	0.031259	-0.630570	0.661917	1.761455	0.464525	0.661752	1.765604	0.406756	0.262426	1.202401	0.245226	0.259799	1.143184	0.295297	0.261135	1.177105	0.240348	0.229721	0.753843	-0.198878	0.225639	0.676744	-0.236574	0.226025	0.696214	-0.327277
1512	120.880000	0.659293	1.709934	0.431957	0.543351	1.614163	0.200584	0.533364	1.606426	0.424997	0.553337	1.621900	-0.023829	0.101234	1.415955	0.519897	0.092241	1.362234	-0.341965	0.272745	1.372566	0.538559	0.239946	0.949162	-0.320191	-0.025996	0.925067	0.138172	-0.031660	0.972890	-0.162104	-0.653198	0.544444	-0.042613	-0.453770	0.523433	-0.326910	-1.199100	0.149549	-0.230556	-0.860152	0.018769	-0.626155	0.662186	1.763820	0.464514	0.662044	1.768871	0.403325	0.272670	1.374081	0.515280	0.271984	1.360289	0.515271	0.272499	1.371460	0.509000	0.231404	0.763605	-0.211711	0.228789	0.714826	-0.240668	0.228927	0.728095	-0.321865
1513	120.960000	0.655086	1.714377	0.425293	0.533741	1.599994	0.195240	0.524369	1.590570	0.420147	0.543114	1.609419	-0.029667	0.098961	1.407063	0.514753	0.089995	1.351501	-0.341892	0.296257	1.379955	0.547232	0.238686	0.951873	-0.322380	-0.023698	0.922912	0.138253	-0.031780	0.971207	-0.158572	-0.646498	0.543695	-0.033712	-0.450043	0.520608	-0.322930	-1.187244	0.152728	-0.216590	-0.854600	0.021917	-0.607551	0.657765	1.763675	0.460209	0.658266	1.783448	0.384913	0.294856	1.356246	0.512976	0.294842	1.356014	0.512577	0.294683	1.353987	0.503604	0.230848	0.778929	-0.202063	0.228979	0.744133	-0.223344	0.228245	0.742523	-0.324861
1514	121.040000	0.646828	1.720510	0.413076	0.529301	1.591188	0.191034	0.516330	1.572740	0.415982	0.542271	1.609637	-0.033915	0.095103	1.393131	0.500295	0.085338	1.346275	-0.344400	0.319922	1.370670	0.541891	0.236182	0.948854	-0.321568	-0.021812	0.914603	0.136634	-0.031711	0.963368	-0.153997	-0.633450	0.540408	-0.024790	-0.442575	0.513581	-0.317449	-1.164237	0.156559	-0.199485	-0.840009	0.024739	-0.581117	0.648908	1.759893	0.431482	0.648796	1.763249	0.388091	0.318206	1.342582	0.492471	0.317848	1.335528	0.491530	0.318038	1.340805	0.480125	0.226991	0.746837	-0.186536	0.225631	0.722025	-0.205890	0.224829	0.719273	-0.309242
1515	121.120000	0.641082	1.718330	0.401646	0.526792	1.580607	0.188168	0.514102	1.558127	0.415971	0.539483	1.603087	-0.039635	0.096675	1.380463	0.499095	0.083292	1.337282	-0.349793	0.339214	1.362194	0.546029	0.234281	0.941058	-0.323867	-0.020477	0.901152	0.136195	-0.032090	0.950768	-0.151818	-0.626300	0.526417	-0.016486	-0.437284	0.495329	-0.316230	-1.153346	0.146516	-0.184321	-0.831142	0.011751	-0.559443	0.642973	1.754549	0.415151	0.643029	1.760610	0.376928	0.345744	1.703218	-1.078498	0.349440	1.766444	-0.993305	0.206987	-0.946723	-2.135298	0.226302	0.762065	-0.178619	0.224505	0.728233	-0.196062	0.223087	0.713505	-0.302504
1516	121.200000	0.638454	1.711901	0.393019	0.523379	1.568429	0.187275	0.512978	1.545757	0.417886	0.533780	1.591101	-0.043336	0.099283	1.368374	0.503773	0.082486	1.327291	-0.353138	0.362067	1.348053	0.553277	0.232924	0.934135	-0.328920	-0.019506	0.888567	0.136979	-0.032708	0.939299	-0.151137	-0.621927	0.507081	-0.008855	-0.432460	0.473410	-0.317219	-1.149933	0.131226	-0.170966	-0.826502	-0.005959	-0.540896	0.640828	1.756953	0.413272	0.640509	1.756531	0.366928	0.364452	1.402325	0.503914	0.363610	1.385650	0.502074	0.359538	1.308398	0.467125	0.224340	0.743885	-0.190578	0.222746	0.713994	-0.207000	0.222096	0.713134	-0.301411
1517	121.280000	0.635212	1.710259	0.385499	0.519091	1.559437	0.187916	0.509211	1.534947	0.418712	0.528971	1.583927	-0.042880	0.099395	1.355371	0.505863	0.080893	1.324133	-0.352684	0.389037	1.325226	0.555875	0.231408	0.932378	-0.334753	-0.018694	0.880801	0.137517	-0.033222	0.932735	-0.150132	-0.613924	0.491146	-0.002233	-0.425404	0.457862	-0.316996	-1.141311	0.123096	-0.158451	-0.819836	-0.013574	-0.520907	0.637531	1.755305	0.397345	0.636671	1.744627	0.346317	0.386801	1.288701	0.490901	0.386711	1.286821	0.491548	0.386765	1.289513	0.479127	0.223940	0.763586	-0.189037	0.221919	0.725807	-0.210852	0.221200	0.724230	-0.310278
1518	121.360000	0.630318	1.712983	0.378100	0.514544	1.553794	0.189220	0.503987	1.525583	0.419017	0.525100	1.582005	-0.040577	0.098627	1.341466	0.507028	0.078867	1.327558	-0.350298	0.410601	1.306180	0.562982	0.229073	0.935389	-0.342174	-0.018029	0.875542	0.137559	-0.033438	0.928944	-0.148909	-0.603970	0.479041	0.002452	-0.418054	0.448901	-0.316569	-1.128315	0.120423	-0.148817	-0.812440	-0.012766	-0.502454	0.632870	1.759871	0.411907	0.633037	1.770631	0.354601	0.408079	1.266201	0.480446	0.407721	1.259155	0.479328	0.407853	1.263632	0.465072	0.221036	0.755090	-0.195865	0.218605	0.708946	-0.216609	0.217617	0.703211	-0.325739
